M48
; DRILL file {KiCad (5.1.2)-2} date 09/14/19 22:47:20
; FORMAT={-:-/ absolute / inch / decimal}
; #@! TF.CreationDate,2019-09-14T22:47:20+02:00
; #@! TF.GenerationSoftware,Kicad,Pcbnew,(5.1.2)-2
; #@! TF.FileFunction,Plated,1,2,PTH
FMAT,2
INCH
T1C0.0157
T2C0.0394
%
G90
G05
T1
X3.75Y-2.11
X3.75Y-2.89
X3.8815Y-2.6385
X3.91Y-2.17
X3.91Y-2.24
X3.91Y-2.32
X3.91Y-2.4
X3.91Y-2.48
X3.91Y-2.68
X4.1Y-3.21
X4.23Y-2.69
X4.23Y-2.91
X4.23Y-3.03
X4.3Y-3.21
X4.38Y-2.56
X4.38Y-2.69
X4.38Y-2.91
X4.38Y-3.03
X4.44Y-2.62
X4.44Y-2.69
X4.47Y-2.48
X4.5Y-2.69
X4.5Y-2.91
X4.5Y-3.21
X4.51Y-2.24
X4.51Y-2.32
X4.53Y-2.48
X4.53Y-2.56
X4.53Y-2.64
X4.68Y-2.47
X4.68Y-2.6
X4.71Y-2.57
X4.85Y-2.11
X4.85Y-2.89
T2
X4.78Y-2.54
X4.78Y-2.64
X3.815Y-2.18
X3.815Y-2.28
X3.815Y-2.44
X3.815Y-2.54
X3.815Y-2.64
X3.815Y-2.74
T0
M30
