G04 #@! TF.GenerationSoftware,KiCad,Pcbnew,(5.1.2)-2*
G04 #@! TF.CreationDate,2019-09-14T22:41:30+02:00*
G04 #@! TF.ProjectId,PlantWatering,506c616e-7457-4617-9465-72696e672e6b,rev?*
G04 #@! TF.SameCoordinates,Original*
G04 #@! TF.FileFunction,Soldermask,Top*
G04 #@! TF.FilePolarity,Negative*
%FSLAX46Y46*%
G04 Gerber Fmt 4.6, Leading zero omitted, Abs format (unit mm)*
G04 Created by KiCad (PCBNEW (5.1.2)-2) date 2019-09-14 22:41:30*
%MOMM*%
%LPD*%
G04 APERTURE LIST*
%ADD10C,0.100000*%
G04 APERTURE END LIST*
D10*
G36*
X109995562Y-76202681D02*
G01*
X110030481Y-76213274D01*
X110062663Y-76230476D01*
X110090873Y-76253627D01*
X110114024Y-76281837D01*
X110131226Y-76314019D01*
X110141819Y-76348938D01*
X110146000Y-76391395D01*
X110146000Y-77532605D01*
X110141819Y-77575062D01*
X110131226Y-77609981D01*
X110114024Y-77642163D01*
X110090873Y-77670373D01*
X110062663Y-77693524D01*
X110030481Y-77710726D01*
X109995562Y-77721319D01*
X109953105Y-77725500D01*
X108486895Y-77725500D01*
X108444438Y-77721319D01*
X108409519Y-77710726D01*
X108377337Y-77693524D01*
X108349127Y-77670373D01*
X108325976Y-77642163D01*
X108308774Y-77609981D01*
X108298181Y-77575062D01*
X108294000Y-77532605D01*
X108294000Y-76391395D01*
X108298181Y-76348938D01*
X108308774Y-76314019D01*
X108325976Y-76281837D01*
X108349127Y-76253627D01*
X108377337Y-76230476D01*
X108409519Y-76213274D01*
X108444438Y-76202681D01*
X108486895Y-76198500D01*
X109953105Y-76198500D01*
X109995562Y-76202681D01*
X109995562Y-76202681D01*
G37*
G36*
X109995562Y-73227681D02*
G01*
X110030481Y-73238274D01*
X110062663Y-73255476D01*
X110090873Y-73278627D01*
X110114024Y-73306837D01*
X110131226Y-73339019D01*
X110141819Y-73373938D01*
X110146000Y-73416395D01*
X110146000Y-74557605D01*
X110141819Y-74600062D01*
X110131226Y-74634981D01*
X110114024Y-74667163D01*
X110090873Y-74695373D01*
X110062663Y-74718524D01*
X110030481Y-74735726D01*
X109995562Y-74746319D01*
X109953105Y-74750500D01*
X108486895Y-74750500D01*
X108444438Y-74746319D01*
X108409519Y-74735726D01*
X108377337Y-74718524D01*
X108349127Y-74695373D01*
X108325976Y-74667163D01*
X108308774Y-74634981D01*
X108298181Y-74600062D01*
X108294000Y-74557605D01*
X108294000Y-73416395D01*
X108298181Y-73373938D01*
X108308774Y-73339019D01*
X108325976Y-73306837D01*
X108349127Y-73278627D01*
X108377337Y-73255476D01*
X108409519Y-73238274D01*
X108444438Y-73227681D01*
X108486895Y-73223500D01*
X109953105Y-73223500D01*
X109995562Y-73227681D01*
X109995562Y-73227681D01*
G37*
G36*
X102307000Y-72458000D02*
G01*
X100805000Y-72458000D01*
X100805000Y-71306000D01*
X102307000Y-71306000D01*
X102307000Y-72458000D01*
X102307000Y-72458000D01*
G37*
G36*
X105907000Y-72458000D02*
G01*
X104405000Y-72458000D01*
X104405000Y-71306000D01*
X105907000Y-71306000D01*
X105907000Y-72458000D01*
X105907000Y-72458000D01*
G37*
G36*
X119365000Y-72140000D02*
G01*
X117363000Y-72140000D01*
X117363000Y-71238000D01*
X119365000Y-71238000D01*
X119365000Y-72140000D01*
X119365000Y-72140000D01*
G37*
G36*
X116599562Y-70614681D02*
G01*
X116634481Y-70625274D01*
X116666663Y-70642476D01*
X116694873Y-70665627D01*
X116718024Y-70693837D01*
X116735226Y-70726019D01*
X116745819Y-70760938D01*
X116750000Y-70803395D01*
X116750000Y-71944605D01*
X116745819Y-71987062D01*
X116735226Y-72021981D01*
X116718024Y-72054163D01*
X116694873Y-72082373D01*
X116666663Y-72105524D01*
X116634481Y-72122726D01*
X116599562Y-72133319D01*
X116557105Y-72137500D01*
X115090895Y-72137500D01*
X115048438Y-72133319D01*
X115013519Y-72122726D01*
X114981337Y-72105524D01*
X114953127Y-72082373D01*
X114929976Y-72054163D01*
X114912774Y-72021981D01*
X114902181Y-71987062D01*
X114898000Y-71944605D01*
X114898000Y-70803395D01*
X114902181Y-70760938D01*
X114912774Y-70726019D01*
X114929976Y-70693837D01*
X114953127Y-70665627D01*
X114981337Y-70642476D01*
X115013519Y-70625274D01*
X115048438Y-70614681D01*
X115090895Y-70610500D01*
X116557105Y-70610500D01*
X116599562Y-70614681D01*
X116599562Y-70614681D01*
G37*
G36*
X122365000Y-71190000D02*
G01*
X120363000Y-71190000D01*
X120363000Y-70288000D01*
X122365000Y-70288000D01*
X122365000Y-71190000D01*
X122365000Y-71190000D01*
G37*
G36*
X105907000Y-71018000D02*
G01*
X104405000Y-71018000D01*
X104405000Y-69866000D01*
X105907000Y-69866000D01*
X105907000Y-71018000D01*
X105907000Y-71018000D01*
G37*
G36*
X102307000Y-71018000D02*
G01*
X100805000Y-71018000D01*
X100805000Y-69866000D01*
X102307000Y-69866000D01*
X102307000Y-71018000D01*
X102307000Y-71018000D01*
G37*
G36*
X97802000Y-70497000D02*
G01*
X96000000Y-70497000D01*
X96000000Y-68695000D01*
X97802000Y-68695000D01*
X97802000Y-70497000D01*
X97802000Y-70497000D01*
G37*
G36*
X119365000Y-70240000D02*
G01*
X117363000Y-70240000D01*
X117363000Y-69338000D01*
X119365000Y-69338000D01*
X119365000Y-70240000D01*
X119365000Y-70240000D01*
G37*
G36*
X116599562Y-67639681D02*
G01*
X116634481Y-67650274D01*
X116666663Y-67667476D01*
X116694873Y-67690627D01*
X116718024Y-67718837D01*
X116735226Y-67751019D01*
X116745819Y-67785938D01*
X116750000Y-67828395D01*
X116750000Y-68969605D01*
X116745819Y-69012062D01*
X116735226Y-69046981D01*
X116718024Y-69079163D01*
X116694873Y-69107373D01*
X116666663Y-69130524D01*
X116634481Y-69147726D01*
X116599562Y-69158319D01*
X116557105Y-69162500D01*
X115090895Y-69162500D01*
X115048438Y-69158319D01*
X115013519Y-69147726D01*
X114981337Y-69130524D01*
X114953127Y-69107373D01*
X114929976Y-69079163D01*
X114912774Y-69046981D01*
X114902181Y-69012062D01*
X114898000Y-68969605D01*
X114898000Y-67828395D01*
X114902181Y-67785938D01*
X114912774Y-67751019D01*
X114929976Y-67718837D01*
X114953127Y-67690627D01*
X114981337Y-67667476D01*
X115013519Y-67650274D01*
X115048438Y-67639681D01*
X115090895Y-67635500D01*
X116557105Y-67635500D01*
X116599562Y-67639681D01*
X116599562Y-67639681D01*
G37*
G36*
X105007062Y-66896181D02*
G01*
X105041981Y-66906774D01*
X105074163Y-66923976D01*
X105102373Y-66947127D01*
X105125524Y-66975337D01*
X105142726Y-67007519D01*
X105153319Y-67042438D01*
X105157500Y-67084895D01*
X105157500Y-68551105D01*
X105153319Y-68593562D01*
X105142726Y-68628481D01*
X105125524Y-68660663D01*
X105102373Y-68688873D01*
X105074163Y-68712024D01*
X105041981Y-68729226D01*
X105007062Y-68739819D01*
X104964605Y-68744000D01*
X103823395Y-68744000D01*
X103780938Y-68739819D01*
X103746019Y-68729226D01*
X103713837Y-68712024D01*
X103685627Y-68688873D01*
X103662476Y-68660663D01*
X103645274Y-68628481D01*
X103634681Y-68593562D01*
X103630500Y-68551105D01*
X103630500Y-67084895D01*
X103634681Y-67042438D01*
X103645274Y-67007519D01*
X103662476Y-66975337D01*
X103685627Y-66947127D01*
X103713837Y-66923976D01*
X103746019Y-66906774D01*
X103780938Y-66896181D01*
X103823395Y-66892000D01*
X104964605Y-66892000D01*
X105007062Y-66896181D01*
X105007062Y-66896181D01*
G37*
G36*
X102032062Y-66896181D02*
G01*
X102066981Y-66906774D01*
X102099163Y-66923976D01*
X102127373Y-66947127D01*
X102150524Y-66975337D01*
X102167726Y-67007519D01*
X102178319Y-67042438D01*
X102182500Y-67084895D01*
X102182500Y-68551105D01*
X102178319Y-68593562D01*
X102167726Y-68628481D01*
X102150524Y-68660663D01*
X102127373Y-68688873D01*
X102099163Y-68712024D01*
X102066981Y-68729226D01*
X102032062Y-68739819D01*
X101989605Y-68744000D01*
X100848395Y-68744000D01*
X100805938Y-68739819D01*
X100771019Y-68729226D01*
X100738837Y-68712024D01*
X100710627Y-68688873D01*
X100687476Y-68660663D01*
X100670274Y-68628481D01*
X100659681Y-68593562D01*
X100655500Y-68551105D01*
X100655500Y-67084895D01*
X100659681Y-67042438D01*
X100670274Y-67007519D01*
X100687476Y-66975337D01*
X100710627Y-66947127D01*
X100738837Y-66923976D01*
X100771019Y-66906774D01*
X100805938Y-66896181D01*
X100848395Y-66892000D01*
X101989605Y-66892000D01*
X102032062Y-66896181D01*
X102032062Y-66896181D01*
G37*
G36*
X96984369Y-66158852D02*
G01*
X97077627Y-66168037D01*
X97247466Y-66219557D01*
X97403991Y-66303222D01*
X97439729Y-66332552D01*
X97541186Y-66415814D01*
X97624448Y-66517271D01*
X97653778Y-66553009D01*
X97737443Y-66709534D01*
X97788963Y-66879373D01*
X97806359Y-67056000D01*
X97788963Y-67232627D01*
X97737443Y-67402466D01*
X97653778Y-67558991D01*
X97624448Y-67594729D01*
X97541186Y-67696186D01*
X97439729Y-67779448D01*
X97403991Y-67808778D01*
X97247466Y-67892443D01*
X97077627Y-67943963D01*
X97011442Y-67950482D01*
X96945260Y-67957000D01*
X96856740Y-67957000D01*
X96790558Y-67950482D01*
X96724373Y-67943963D01*
X96554534Y-67892443D01*
X96398009Y-67808778D01*
X96362271Y-67779448D01*
X96260814Y-67696186D01*
X96177552Y-67594729D01*
X96148222Y-67558991D01*
X96064557Y-67402466D01*
X96013037Y-67232627D01*
X95995641Y-67056000D01*
X96013037Y-66879373D01*
X96064557Y-66709534D01*
X96148222Y-66553009D01*
X96177552Y-66517271D01*
X96260814Y-66415814D01*
X96362271Y-66332552D01*
X96398009Y-66303222D01*
X96554534Y-66219557D01*
X96724373Y-66168037D01*
X96817631Y-66158852D01*
X96856740Y-66155000D01*
X96945260Y-66155000D01*
X96984369Y-66158852D01*
X96984369Y-66158852D01*
G37*
G36*
X121495369Y-66158852D02*
G01*
X121588627Y-66168037D01*
X121758466Y-66219557D01*
X121914991Y-66303222D01*
X121950729Y-66332552D01*
X122052186Y-66415814D01*
X122135448Y-66517271D01*
X122164778Y-66553009D01*
X122248443Y-66709534D01*
X122299963Y-66879373D01*
X122317359Y-67056000D01*
X122299963Y-67232627D01*
X122248443Y-67402466D01*
X122164778Y-67558991D01*
X122135448Y-67594729D01*
X122052186Y-67696186D01*
X121950729Y-67779448D01*
X121914991Y-67808778D01*
X121758466Y-67892443D01*
X121588627Y-67943963D01*
X121522442Y-67950482D01*
X121456260Y-67957000D01*
X121367740Y-67957000D01*
X121301558Y-67950482D01*
X121235373Y-67943963D01*
X121065534Y-67892443D01*
X120909009Y-67808778D01*
X120873271Y-67779448D01*
X120771814Y-67696186D01*
X120688552Y-67594729D01*
X120659222Y-67558991D01*
X120575557Y-67402466D01*
X120524037Y-67232627D01*
X120506641Y-67056000D01*
X120524037Y-66879373D01*
X120575557Y-66709534D01*
X120659222Y-66553009D01*
X120688552Y-66517271D01*
X120771814Y-66415814D01*
X120873271Y-66332552D01*
X120909009Y-66303222D01*
X121065534Y-66219557D01*
X121235373Y-66168037D01*
X121328631Y-66158852D01*
X121367740Y-66155000D01*
X121456260Y-66155000D01*
X121495369Y-66158852D01*
X121495369Y-66158852D01*
G37*
G36*
X118761000Y-67811000D02*
G01*
X117459000Y-67811000D01*
X117459000Y-66809000D01*
X118761000Y-66809000D01*
X118761000Y-67811000D01*
X118761000Y-67811000D01*
G37*
G36*
X108217562Y-66006181D02*
G01*
X108252481Y-66016774D01*
X108284663Y-66033976D01*
X108312873Y-66057127D01*
X108336024Y-66085337D01*
X108353226Y-66117519D01*
X108363819Y-66152438D01*
X108368000Y-66194895D01*
X108368000Y-67336105D01*
X108363819Y-67378562D01*
X108353226Y-67413481D01*
X108336024Y-67445663D01*
X108312873Y-67473873D01*
X108284663Y-67497024D01*
X108252481Y-67514226D01*
X108217562Y-67524819D01*
X108175105Y-67529000D01*
X106708895Y-67529000D01*
X106666438Y-67524819D01*
X106631519Y-67514226D01*
X106599337Y-67497024D01*
X106571127Y-67473873D01*
X106547976Y-67445663D01*
X106530774Y-67413481D01*
X106520181Y-67378562D01*
X106516000Y-67336105D01*
X106516000Y-66194895D01*
X106520181Y-66152438D01*
X106530774Y-66117519D01*
X106547976Y-66085337D01*
X106571127Y-66057127D01*
X106599337Y-66033976D01*
X106631519Y-66016774D01*
X106666438Y-66006181D01*
X106708895Y-66002000D01*
X108175105Y-66002000D01*
X108217562Y-66006181D01*
X108217562Y-66006181D01*
G37*
G36*
X102032062Y-64356181D02*
G01*
X102066981Y-64366774D01*
X102099163Y-64383976D01*
X102127373Y-64407127D01*
X102150524Y-64435337D01*
X102167726Y-64467519D01*
X102178319Y-64502438D01*
X102182500Y-64544895D01*
X102182500Y-66011105D01*
X102178319Y-66053562D01*
X102167726Y-66088481D01*
X102150524Y-66120663D01*
X102127373Y-66148873D01*
X102099163Y-66172024D01*
X102066981Y-66189226D01*
X102032062Y-66199819D01*
X101989605Y-66204000D01*
X100848395Y-66204000D01*
X100805938Y-66199819D01*
X100771019Y-66189226D01*
X100738837Y-66172024D01*
X100710627Y-66148873D01*
X100687476Y-66120663D01*
X100670274Y-66088481D01*
X100659681Y-66053562D01*
X100655500Y-66011105D01*
X100655500Y-64544895D01*
X100659681Y-64502438D01*
X100670274Y-64467519D01*
X100687476Y-64435337D01*
X100710627Y-64407127D01*
X100738837Y-64383976D01*
X100771019Y-64366774D01*
X100805938Y-64356181D01*
X100848395Y-64352000D01*
X101989605Y-64352000D01*
X102032062Y-64356181D01*
X102032062Y-64356181D01*
G37*
G36*
X105007062Y-64356181D02*
G01*
X105041981Y-64366774D01*
X105074163Y-64383976D01*
X105102373Y-64407127D01*
X105125524Y-64435337D01*
X105142726Y-64467519D01*
X105153319Y-64502438D01*
X105157500Y-64544895D01*
X105157500Y-66011105D01*
X105153319Y-66053562D01*
X105142726Y-66088481D01*
X105125524Y-66120663D01*
X105102373Y-66148873D01*
X105074163Y-66172024D01*
X105041981Y-66189226D01*
X105007062Y-66199819D01*
X104964605Y-66204000D01*
X103823395Y-66204000D01*
X103780938Y-66199819D01*
X103746019Y-66189226D01*
X103713837Y-66172024D01*
X103685627Y-66148873D01*
X103662476Y-66120663D01*
X103645274Y-66088481D01*
X103634681Y-66053562D01*
X103630500Y-66011105D01*
X103630500Y-64544895D01*
X103634681Y-64502438D01*
X103645274Y-64467519D01*
X103662476Y-64435337D01*
X103685627Y-64407127D01*
X103713837Y-64383976D01*
X103746019Y-64366774D01*
X103780938Y-64356181D01*
X103823395Y-64352000D01*
X104964605Y-64352000D01*
X105007062Y-64356181D01*
X105007062Y-64356181D01*
G37*
G36*
X122313000Y-65417000D02*
G01*
X120511000Y-65417000D01*
X120511000Y-63615000D01*
X122313000Y-63615000D01*
X122313000Y-65417000D01*
X122313000Y-65417000D01*
G37*
G36*
X97011443Y-63621519D02*
G01*
X97077627Y-63628037D01*
X97247466Y-63679557D01*
X97403991Y-63763222D01*
X97439729Y-63792552D01*
X97541186Y-63875814D01*
X97624448Y-63977271D01*
X97653778Y-64013009D01*
X97737443Y-64169534D01*
X97788963Y-64339373D01*
X97806359Y-64516000D01*
X97788963Y-64692627D01*
X97737443Y-64862466D01*
X97653778Y-65018991D01*
X97624448Y-65054729D01*
X97541186Y-65156186D01*
X97439729Y-65239448D01*
X97403991Y-65268778D01*
X97247466Y-65352443D01*
X97077627Y-65403963D01*
X97011443Y-65410481D01*
X96945260Y-65417000D01*
X96856740Y-65417000D01*
X96790557Y-65410481D01*
X96724373Y-65403963D01*
X96554534Y-65352443D01*
X96398009Y-65268778D01*
X96362271Y-65239448D01*
X96260814Y-65156186D01*
X96177552Y-65054729D01*
X96148222Y-65018991D01*
X96064557Y-64862466D01*
X96013037Y-64692627D01*
X95995641Y-64516000D01*
X96013037Y-64339373D01*
X96064557Y-64169534D01*
X96148222Y-64013009D01*
X96177552Y-63977271D01*
X96260814Y-63875814D01*
X96362271Y-63792552D01*
X96398009Y-63763222D01*
X96554534Y-63679557D01*
X96724373Y-63628037D01*
X96790557Y-63621519D01*
X96856740Y-63615000D01*
X96945260Y-63615000D01*
X97011443Y-63621519D01*
X97011443Y-63621519D01*
G37*
G36*
X108217562Y-63031181D02*
G01*
X108252481Y-63041774D01*
X108284663Y-63058976D01*
X108312873Y-63082127D01*
X108336024Y-63110337D01*
X108353226Y-63142519D01*
X108363819Y-63177438D01*
X108368000Y-63219895D01*
X108368000Y-64361105D01*
X108363819Y-64403562D01*
X108353226Y-64438481D01*
X108336024Y-64470663D01*
X108312873Y-64498873D01*
X108284663Y-64522024D01*
X108252481Y-64539226D01*
X108217562Y-64549819D01*
X108175105Y-64554000D01*
X106708895Y-64554000D01*
X106666438Y-64549819D01*
X106631519Y-64539226D01*
X106599337Y-64522024D01*
X106571127Y-64498873D01*
X106547976Y-64470663D01*
X106530774Y-64438481D01*
X106520181Y-64403562D01*
X106516000Y-64361105D01*
X106516000Y-63219895D01*
X106520181Y-63177438D01*
X106530774Y-63142519D01*
X106547976Y-63110337D01*
X106571127Y-63082127D01*
X106599337Y-63058976D01*
X106631519Y-63041774D01*
X106666438Y-63031181D01*
X106708895Y-63027000D01*
X108175105Y-63027000D01*
X108217562Y-63031181D01*
X108217562Y-63031181D01*
G37*
G36*
X118761000Y-64511000D02*
G01*
X117459000Y-64511000D01*
X117459000Y-63509000D01*
X118761000Y-63509000D01*
X118761000Y-64511000D01*
X118761000Y-64511000D01*
G37*
G36*
X102509867Y-61573004D02*
G01*
X102533292Y-61580110D01*
X102554889Y-61591654D01*
X102573814Y-61607186D01*
X102589346Y-61626111D01*
X102600890Y-61647708D01*
X102607996Y-61671133D01*
X102611000Y-61701638D01*
X102611000Y-63515362D01*
X102607996Y-63545867D01*
X102600890Y-63569292D01*
X102589346Y-63590889D01*
X102573814Y-63609814D01*
X102554889Y-63625346D01*
X102533292Y-63636890D01*
X102509867Y-63643996D01*
X102479362Y-63647000D01*
X101990638Y-63647000D01*
X101960133Y-63643996D01*
X101936708Y-63636890D01*
X101915111Y-63625346D01*
X101896186Y-63609814D01*
X101880654Y-63590889D01*
X101869110Y-63569292D01*
X101862004Y-63545867D01*
X101859000Y-63515362D01*
X101859000Y-61701638D01*
X101862004Y-61671133D01*
X101869110Y-61647708D01*
X101880654Y-61626111D01*
X101896186Y-61607186D01*
X101915111Y-61591654D01*
X101936708Y-61580110D01*
X101960133Y-61573004D01*
X101990638Y-61570000D01*
X102479362Y-61570000D01*
X102509867Y-61573004D01*
X102509867Y-61573004D01*
G37*
G36*
X101239867Y-61573004D02*
G01*
X101263292Y-61580110D01*
X101284889Y-61591654D01*
X101303814Y-61607186D01*
X101319346Y-61626111D01*
X101330890Y-61647708D01*
X101337996Y-61671133D01*
X101341000Y-61701638D01*
X101341000Y-63515362D01*
X101337996Y-63545867D01*
X101330890Y-63569292D01*
X101319346Y-63590889D01*
X101303814Y-63609814D01*
X101284889Y-63625346D01*
X101263292Y-63636890D01*
X101239867Y-63643996D01*
X101209362Y-63647000D01*
X100720638Y-63647000D01*
X100690133Y-63643996D01*
X100666708Y-63636890D01*
X100645111Y-63625346D01*
X100626186Y-63609814D01*
X100610654Y-63590889D01*
X100599110Y-63569292D01*
X100592004Y-63545867D01*
X100589000Y-63515362D01*
X100589000Y-61701638D01*
X100592004Y-61671133D01*
X100599110Y-61647708D01*
X100610654Y-61626111D01*
X100626186Y-61607186D01*
X100645111Y-61591654D01*
X100666708Y-61580110D01*
X100690133Y-61573004D01*
X100720638Y-61570000D01*
X101209362Y-61570000D01*
X101239867Y-61573004D01*
X101239867Y-61573004D01*
G37*
G36*
X103779867Y-61573004D02*
G01*
X103803292Y-61580110D01*
X103824889Y-61591654D01*
X103843814Y-61607186D01*
X103859346Y-61626111D01*
X103870890Y-61647708D01*
X103877996Y-61671133D01*
X103881000Y-61701638D01*
X103881000Y-63515362D01*
X103877996Y-63545867D01*
X103870890Y-63569292D01*
X103859346Y-63590889D01*
X103843814Y-63609814D01*
X103824889Y-63625346D01*
X103803292Y-63636890D01*
X103779867Y-63643996D01*
X103749362Y-63647000D01*
X103260638Y-63647000D01*
X103230133Y-63643996D01*
X103206708Y-63636890D01*
X103185111Y-63625346D01*
X103166186Y-63609814D01*
X103150654Y-63590889D01*
X103139110Y-63569292D01*
X103132004Y-63545867D01*
X103129000Y-63515362D01*
X103129000Y-61701638D01*
X103132004Y-61671133D01*
X103139110Y-61647708D01*
X103150654Y-61626111D01*
X103166186Y-61607186D01*
X103185111Y-61591654D01*
X103206708Y-61580110D01*
X103230133Y-61573004D01*
X103260638Y-61570000D01*
X103749362Y-61570000D01*
X103779867Y-61573004D01*
X103779867Y-61573004D01*
G37*
G36*
X105049867Y-61573004D02*
G01*
X105073292Y-61580110D01*
X105094889Y-61591654D01*
X105113814Y-61607186D01*
X105129346Y-61626111D01*
X105140890Y-61647708D01*
X105147996Y-61671133D01*
X105151000Y-61701638D01*
X105151000Y-63515362D01*
X105147996Y-63545867D01*
X105140890Y-63569292D01*
X105129346Y-63590889D01*
X105113814Y-63609814D01*
X105094889Y-63625346D01*
X105073292Y-63636890D01*
X105049867Y-63643996D01*
X105019362Y-63647000D01*
X104530638Y-63647000D01*
X104500133Y-63643996D01*
X104476708Y-63636890D01*
X104455111Y-63625346D01*
X104436186Y-63609814D01*
X104420654Y-63590889D01*
X104409110Y-63569292D01*
X104402004Y-63545867D01*
X104399000Y-63515362D01*
X104399000Y-61701638D01*
X104402004Y-61671133D01*
X104409110Y-61647708D01*
X104420654Y-61626111D01*
X104436186Y-61607186D01*
X104455111Y-61591654D01*
X104476708Y-61580110D01*
X104500133Y-61573004D01*
X104530638Y-61570000D01*
X105019362Y-61570000D01*
X105049867Y-61573004D01*
X105049867Y-61573004D01*
G37*
G36*
X97011442Y-61081518D02*
G01*
X97077627Y-61088037D01*
X97247466Y-61139557D01*
X97403991Y-61223222D01*
X97409279Y-61227562D01*
X97541186Y-61335814D01*
X97624448Y-61437271D01*
X97653778Y-61473009D01*
X97737443Y-61629534D01*
X97788963Y-61799373D01*
X97806359Y-61976000D01*
X97788963Y-62152627D01*
X97737443Y-62322466D01*
X97653778Y-62478991D01*
X97624448Y-62514729D01*
X97541186Y-62616186D01*
X97439729Y-62699448D01*
X97403991Y-62728778D01*
X97247466Y-62812443D01*
X97077627Y-62863963D01*
X97011443Y-62870481D01*
X96945260Y-62877000D01*
X96856740Y-62877000D01*
X96790557Y-62870481D01*
X96724373Y-62863963D01*
X96554534Y-62812443D01*
X96398009Y-62728778D01*
X96362271Y-62699448D01*
X96260814Y-62616186D01*
X96177552Y-62514729D01*
X96148222Y-62478991D01*
X96064557Y-62322466D01*
X96013037Y-62152627D01*
X95995641Y-61976000D01*
X96013037Y-61799373D01*
X96064557Y-61629534D01*
X96148222Y-61473009D01*
X96177552Y-61437271D01*
X96260814Y-61335814D01*
X96392721Y-61227562D01*
X96398009Y-61223222D01*
X96554534Y-61139557D01*
X96724373Y-61088037D01*
X96790558Y-61081518D01*
X96856740Y-61075000D01*
X96945260Y-61075000D01*
X97011442Y-61081518D01*
X97011442Y-61081518D01*
G37*
G36*
X122027997Y-60465051D02*
G01*
X122061652Y-60475261D01*
X122092665Y-60491838D01*
X122119851Y-60514149D01*
X122142162Y-60541335D01*
X122158739Y-60572348D01*
X122168949Y-60606003D01*
X122173000Y-60647138D01*
X122173000Y-61976862D01*
X122168949Y-62017997D01*
X122158739Y-62051652D01*
X122142162Y-62082665D01*
X122119851Y-62109851D01*
X122092665Y-62132162D01*
X122061652Y-62148739D01*
X122027997Y-62158949D01*
X121986862Y-62163000D01*
X119257138Y-62163000D01*
X119216003Y-62158949D01*
X119182348Y-62148739D01*
X119151335Y-62132162D01*
X119124149Y-62109851D01*
X119101838Y-62082665D01*
X119085261Y-62051652D01*
X119075051Y-62017997D01*
X119071000Y-61976862D01*
X119071000Y-60647138D01*
X119075051Y-60606003D01*
X119085261Y-60572348D01*
X119101838Y-60541335D01*
X119124149Y-60514149D01*
X119151335Y-60491838D01*
X119182348Y-60475261D01*
X119216003Y-60465051D01*
X119257138Y-60461000D01*
X121986862Y-60461000D01*
X122027997Y-60465051D01*
X122027997Y-60465051D01*
G37*
G36*
X111103062Y-59530181D02*
G01*
X111137981Y-59540774D01*
X111170163Y-59557976D01*
X111198373Y-59581127D01*
X111221524Y-59609337D01*
X111238726Y-59641519D01*
X111249319Y-59676438D01*
X111253500Y-59718895D01*
X111253500Y-61185105D01*
X111249319Y-61227562D01*
X111238726Y-61262481D01*
X111221524Y-61294663D01*
X111198373Y-61322873D01*
X111170163Y-61346024D01*
X111137981Y-61363226D01*
X111103062Y-61373819D01*
X111060605Y-61378000D01*
X109919395Y-61378000D01*
X109876938Y-61373819D01*
X109842019Y-61363226D01*
X109809837Y-61346024D01*
X109781627Y-61322873D01*
X109758476Y-61294663D01*
X109741274Y-61262481D01*
X109730681Y-61227562D01*
X109726500Y-61185105D01*
X109726500Y-59718895D01*
X109730681Y-59676438D01*
X109741274Y-59641519D01*
X109758476Y-59609337D01*
X109781627Y-59581127D01*
X109809837Y-59557976D01*
X109842019Y-59540774D01*
X109876938Y-59530181D01*
X109919395Y-59526000D01*
X111060605Y-59526000D01*
X111103062Y-59530181D01*
X111103062Y-59530181D01*
G37*
G36*
X108128062Y-59530181D02*
G01*
X108162981Y-59540774D01*
X108195163Y-59557976D01*
X108223373Y-59581127D01*
X108246524Y-59609337D01*
X108263726Y-59641519D01*
X108274319Y-59676438D01*
X108278500Y-59718895D01*
X108278500Y-61185105D01*
X108274319Y-61227562D01*
X108263726Y-61262481D01*
X108246524Y-61294663D01*
X108223373Y-61322873D01*
X108195163Y-61346024D01*
X108162981Y-61363226D01*
X108128062Y-61373819D01*
X108085605Y-61378000D01*
X106944395Y-61378000D01*
X106901938Y-61373819D01*
X106867019Y-61363226D01*
X106834837Y-61346024D01*
X106806627Y-61322873D01*
X106783476Y-61294663D01*
X106766274Y-61262481D01*
X106755681Y-61227562D01*
X106751500Y-61185105D01*
X106751500Y-59718895D01*
X106755681Y-59676438D01*
X106766274Y-59641519D01*
X106783476Y-59609337D01*
X106806627Y-59581127D01*
X106834837Y-59557976D01*
X106867019Y-59540774D01*
X106901938Y-59530181D01*
X106944395Y-59526000D01*
X108085605Y-59526000D01*
X108128062Y-59530181D01*
X108128062Y-59530181D01*
G37*
G36*
X121001434Y-58365686D02*
G01*
X121041284Y-58377774D01*
X121077999Y-58397399D01*
X121110186Y-58423814D01*
X121136601Y-58456001D01*
X121156226Y-58492716D01*
X121168314Y-58532566D01*
X121173000Y-58580141D01*
X121173000Y-59243859D01*
X121168314Y-59291434D01*
X121156226Y-59331284D01*
X121136601Y-59367999D01*
X121110186Y-59400186D01*
X121077999Y-59426601D01*
X121041284Y-59446226D01*
X121001434Y-59458314D01*
X120953859Y-59463000D01*
X115790141Y-59463000D01*
X115742566Y-59458314D01*
X115702716Y-59446226D01*
X115666001Y-59426601D01*
X115633814Y-59400186D01*
X115607399Y-59367999D01*
X115587774Y-59331284D01*
X115575686Y-59291434D01*
X115571000Y-59243859D01*
X115571000Y-58580141D01*
X115575686Y-58532566D01*
X115587774Y-58492716D01*
X115607399Y-58456001D01*
X115633814Y-58423814D01*
X115666001Y-58397399D01*
X115702716Y-58377774D01*
X115742566Y-58365686D01*
X115790141Y-58361000D01*
X120953859Y-58361000D01*
X121001434Y-58365686D01*
X121001434Y-58365686D01*
G37*
G36*
X97011442Y-57017518D02*
G01*
X97077627Y-57024037D01*
X97247466Y-57075557D01*
X97403991Y-57159222D01*
X97438448Y-57187500D01*
X97541186Y-57271814D01*
X97620122Y-57367999D01*
X97653778Y-57409009D01*
X97737443Y-57565534D01*
X97788963Y-57735373D01*
X97806359Y-57912000D01*
X97788963Y-58088627D01*
X97737443Y-58258466D01*
X97653778Y-58414991D01*
X97646537Y-58423814D01*
X97541186Y-58552186D01*
X97439729Y-58635448D01*
X97403991Y-58664778D01*
X97247466Y-58748443D01*
X97077627Y-58799963D01*
X97011442Y-58806482D01*
X96945260Y-58813000D01*
X96856740Y-58813000D01*
X96790558Y-58806482D01*
X96724373Y-58799963D01*
X96554534Y-58748443D01*
X96398009Y-58664778D01*
X96362271Y-58635448D01*
X96260814Y-58552186D01*
X96155463Y-58423814D01*
X96148222Y-58414991D01*
X96064557Y-58258466D01*
X96013037Y-58088627D01*
X95995641Y-57912000D01*
X96013037Y-57735373D01*
X96064557Y-57565534D01*
X96148222Y-57409009D01*
X96181878Y-57367999D01*
X96260814Y-57271814D01*
X96363552Y-57187500D01*
X96398009Y-57159222D01*
X96554534Y-57075557D01*
X96724373Y-57024037D01*
X96790558Y-57017518D01*
X96856740Y-57011000D01*
X96945260Y-57011000D01*
X97011442Y-57017518D01*
X97011442Y-57017518D01*
G37*
G36*
X108091562Y-56736181D02*
G01*
X108126481Y-56746774D01*
X108158663Y-56763976D01*
X108186873Y-56787127D01*
X108210024Y-56815337D01*
X108227226Y-56847519D01*
X108237819Y-56882438D01*
X108242000Y-56924895D01*
X108242000Y-58391105D01*
X108237819Y-58433562D01*
X108227226Y-58468481D01*
X108210024Y-58500663D01*
X108186873Y-58528873D01*
X108158663Y-58552024D01*
X108126481Y-58569226D01*
X108091562Y-58579819D01*
X108049105Y-58584000D01*
X106907895Y-58584000D01*
X106865438Y-58579819D01*
X106830519Y-58569226D01*
X106798337Y-58552024D01*
X106770127Y-58528873D01*
X106746976Y-58500663D01*
X106729774Y-58468481D01*
X106719181Y-58433562D01*
X106715000Y-58391105D01*
X106715000Y-56924895D01*
X106719181Y-56882438D01*
X106729774Y-56847519D01*
X106746976Y-56815337D01*
X106770127Y-56787127D01*
X106798337Y-56763976D01*
X106830519Y-56746774D01*
X106865438Y-56736181D01*
X106907895Y-56732000D01*
X108049105Y-56732000D01*
X108091562Y-56736181D01*
X108091562Y-56736181D01*
G37*
G36*
X111066562Y-56736181D02*
G01*
X111101481Y-56746774D01*
X111133663Y-56763976D01*
X111161873Y-56787127D01*
X111185024Y-56815337D01*
X111202226Y-56847519D01*
X111212819Y-56882438D01*
X111217000Y-56924895D01*
X111217000Y-58391105D01*
X111212819Y-58433562D01*
X111202226Y-58468481D01*
X111185024Y-58500663D01*
X111161873Y-58528873D01*
X111133663Y-58552024D01*
X111101481Y-58569226D01*
X111066562Y-58579819D01*
X111024105Y-58584000D01*
X109882895Y-58584000D01*
X109840438Y-58579819D01*
X109805519Y-58569226D01*
X109773337Y-58552024D01*
X109745127Y-58528873D01*
X109721976Y-58500663D01*
X109704774Y-58468481D01*
X109694181Y-58433562D01*
X109690000Y-58391105D01*
X109690000Y-56924895D01*
X109694181Y-56882438D01*
X109704774Y-56847519D01*
X109721976Y-56815337D01*
X109745127Y-56787127D01*
X109773337Y-56763976D01*
X109805519Y-56746774D01*
X109840438Y-56736181D01*
X109882895Y-56732000D01*
X111024105Y-56732000D01*
X111066562Y-56736181D01*
X111066562Y-56736181D01*
G37*
G36*
X105049867Y-56498004D02*
G01*
X105073292Y-56505110D01*
X105094889Y-56516654D01*
X105113814Y-56532186D01*
X105129346Y-56551111D01*
X105140890Y-56572708D01*
X105147996Y-56596133D01*
X105151000Y-56626638D01*
X105151000Y-58440362D01*
X105147996Y-58470867D01*
X105140890Y-58494292D01*
X105129346Y-58515889D01*
X105113814Y-58534814D01*
X105094889Y-58550346D01*
X105073292Y-58561890D01*
X105049867Y-58568996D01*
X105019362Y-58572000D01*
X104530638Y-58572000D01*
X104500133Y-58568996D01*
X104476708Y-58561890D01*
X104455111Y-58550346D01*
X104436186Y-58534814D01*
X104420654Y-58515889D01*
X104409110Y-58494292D01*
X104402004Y-58470867D01*
X104399000Y-58440362D01*
X104399000Y-56626638D01*
X104402004Y-56596133D01*
X104409110Y-56572708D01*
X104420654Y-56551111D01*
X104436186Y-56532186D01*
X104455111Y-56516654D01*
X104476708Y-56505110D01*
X104500133Y-56498004D01*
X104530638Y-56495000D01*
X105019362Y-56495000D01*
X105049867Y-56498004D01*
X105049867Y-56498004D01*
G37*
G36*
X101239867Y-56498004D02*
G01*
X101263292Y-56505110D01*
X101284889Y-56516654D01*
X101303814Y-56532186D01*
X101319346Y-56551111D01*
X101330890Y-56572708D01*
X101337996Y-56596133D01*
X101341000Y-56626638D01*
X101341000Y-58440362D01*
X101337996Y-58470867D01*
X101330890Y-58494292D01*
X101319346Y-58515889D01*
X101303814Y-58534814D01*
X101284889Y-58550346D01*
X101263292Y-58561890D01*
X101239867Y-58568996D01*
X101209362Y-58572000D01*
X100720638Y-58572000D01*
X100690133Y-58568996D01*
X100666708Y-58561890D01*
X100645111Y-58550346D01*
X100626186Y-58534814D01*
X100610654Y-58515889D01*
X100599110Y-58494292D01*
X100592004Y-58470867D01*
X100589000Y-58440362D01*
X100589000Y-56626638D01*
X100592004Y-56596133D01*
X100599110Y-56572708D01*
X100610654Y-56551111D01*
X100626186Y-56532186D01*
X100645111Y-56516654D01*
X100666708Y-56505110D01*
X100690133Y-56498004D01*
X100720638Y-56495000D01*
X101209362Y-56495000D01*
X101239867Y-56498004D01*
X101239867Y-56498004D01*
G37*
G36*
X102509867Y-56498004D02*
G01*
X102533292Y-56505110D01*
X102554889Y-56516654D01*
X102573814Y-56532186D01*
X102589346Y-56551111D01*
X102600890Y-56572708D01*
X102607996Y-56596133D01*
X102611000Y-56626638D01*
X102611000Y-58440362D01*
X102607996Y-58470867D01*
X102600890Y-58494292D01*
X102589346Y-58515889D01*
X102573814Y-58534814D01*
X102554889Y-58550346D01*
X102533292Y-58561890D01*
X102509867Y-58568996D01*
X102479362Y-58572000D01*
X101990638Y-58572000D01*
X101960133Y-58568996D01*
X101936708Y-58561890D01*
X101915111Y-58550346D01*
X101896186Y-58534814D01*
X101880654Y-58515889D01*
X101869110Y-58494292D01*
X101862004Y-58470867D01*
X101859000Y-58440362D01*
X101859000Y-56626638D01*
X101862004Y-56596133D01*
X101869110Y-56572708D01*
X101880654Y-56551111D01*
X101896186Y-56532186D01*
X101915111Y-56516654D01*
X101936708Y-56505110D01*
X101960133Y-56498004D01*
X101990638Y-56495000D01*
X102479362Y-56495000D01*
X102509867Y-56498004D01*
X102509867Y-56498004D01*
G37*
G36*
X103779867Y-56498004D02*
G01*
X103803292Y-56505110D01*
X103824889Y-56516654D01*
X103843814Y-56532186D01*
X103859346Y-56551111D01*
X103870890Y-56572708D01*
X103877996Y-56596133D01*
X103881000Y-56626638D01*
X103881000Y-58440362D01*
X103877996Y-58470867D01*
X103870890Y-58494292D01*
X103859346Y-58515889D01*
X103843814Y-58534814D01*
X103824889Y-58550346D01*
X103803292Y-58561890D01*
X103779867Y-58568996D01*
X103749362Y-58572000D01*
X103260638Y-58572000D01*
X103230133Y-58568996D01*
X103206708Y-58561890D01*
X103185111Y-58550346D01*
X103166186Y-58534814D01*
X103150654Y-58515889D01*
X103139110Y-58494292D01*
X103132004Y-58470867D01*
X103129000Y-58440362D01*
X103129000Y-56626638D01*
X103132004Y-56596133D01*
X103139110Y-56572708D01*
X103150654Y-56551111D01*
X103166186Y-56532186D01*
X103185111Y-56516654D01*
X103206708Y-56505110D01*
X103230133Y-56498004D01*
X103260638Y-56495000D01*
X103749362Y-56495000D01*
X103779867Y-56498004D01*
X103779867Y-56498004D01*
G37*
G36*
X121001434Y-56365686D02*
G01*
X121041284Y-56377774D01*
X121077999Y-56397399D01*
X121110186Y-56423814D01*
X121136601Y-56456001D01*
X121156226Y-56492716D01*
X121168314Y-56532566D01*
X121173000Y-56580141D01*
X121173000Y-57243859D01*
X121168314Y-57291434D01*
X121156226Y-57331284D01*
X121136601Y-57367999D01*
X121110186Y-57400186D01*
X121077999Y-57426601D01*
X121041284Y-57446226D01*
X121001434Y-57458314D01*
X120953859Y-57463000D01*
X115790141Y-57463000D01*
X115742566Y-57458314D01*
X115702716Y-57446226D01*
X115666001Y-57426601D01*
X115633814Y-57400186D01*
X115607399Y-57367999D01*
X115587774Y-57331284D01*
X115575686Y-57291434D01*
X115571000Y-57243859D01*
X115571000Y-56580141D01*
X115575686Y-56532566D01*
X115587774Y-56492716D01*
X115607399Y-56456001D01*
X115633814Y-56423814D01*
X115666001Y-56397399D01*
X115702716Y-56377774D01*
X115742566Y-56365686D01*
X115790141Y-56361000D01*
X120953859Y-56361000D01*
X121001434Y-56365686D01*
X121001434Y-56365686D01*
G37*
G36*
X97802000Y-56273000D02*
G01*
X96000000Y-56273000D01*
X96000000Y-54471000D01*
X97802000Y-54471000D01*
X97802000Y-56273000D01*
X97802000Y-56273000D01*
G37*
G36*
X111030062Y-53942181D02*
G01*
X111064981Y-53952774D01*
X111097163Y-53969976D01*
X111125373Y-53993127D01*
X111148524Y-54021337D01*
X111165726Y-54053519D01*
X111176319Y-54088438D01*
X111180500Y-54130895D01*
X111180500Y-55597105D01*
X111176319Y-55639562D01*
X111165726Y-55674481D01*
X111148524Y-55706663D01*
X111125373Y-55734873D01*
X111097163Y-55758024D01*
X111064981Y-55775226D01*
X111030062Y-55785819D01*
X110987605Y-55790000D01*
X109846395Y-55790000D01*
X109803938Y-55785819D01*
X109769019Y-55775226D01*
X109736837Y-55758024D01*
X109708627Y-55734873D01*
X109685476Y-55706663D01*
X109668274Y-55674481D01*
X109657681Y-55639562D01*
X109653500Y-55597105D01*
X109653500Y-54130895D01*
X109657681Y-54088438D01*
X109668274Y-54053519D01*
X109685476Y-54021337D01*
X109708627Y-53993127D01*
X109736837Y-53969976D01*
X109769019Y-53952774D01*
X109803938Y-53942181D01*
X109846395Y-53938000D01*
X110987605Y-53938000D01*
X111030062Y-53942181D01*
X111030062Y-53942181D01*
G37*
G36*
X108055062Y-53942181D02*
G01*
X108089981Y-53952774D01*
X108122163Y-53969976D01*
X108150373Y-53993127D01*
X108173524Y-54021337D01*
X108190726Y-54053519D01*
X108201319Y-54088438D01*
X108205500Y-54130895D01*
X108205500Y-55597105D01*
X108201319Y-55639562D01*
X108190726Y-55674481D01*
X108173524Y-55706663D01*
X108150373Y-55734873D01*
X108122163Y-55758024D01*
X108089981Y-55775226D01*
X108055062Y-55785819D01*
X108012605Y-55790000D01*
X106871395Y-55790000D01*
X106828938Y-55785819D01*
X106794019Y-55775226D01*
X106761837Y-55758024D01*
X106733627Y-55734873D01*
X106710476Y-55706663D01*
X106693274Y-55674481D01*
X106682681Y-55639562D01*
X106678500Y-55597105D01*
X106678500Y-54130895D01*
X106682681Y-54088438D01*
X106693274Y-54053519D01*
X106710476Y-54021337D01*
X106733627Y-53993127D01*
X106761837Y-53969976D01*
X106794019Y-53952774D01*
X106828938Y-53942181D01*
X106871395Y-53938000D01*
X108012605Y-53938000D01*
X108055062Y-53942181D01*
X108055062Y-53942181D01*
G37*
G36*
X104753062Y-53942181D02*
G01*
X104787981Y-53952774D01*
X104820163Y-53969976D01*
X104848373Y-53993127D01*
X104871524Y-54021337D01*
X104888726Y-54053519D01*
X104899319Y-54088438D01*
X104903500Y-54130895D01*
X104903500Y-55597105D01*
X104899319Y-55639562D01*
X104888726Y-55674481D01*
X104871524Y-55706663D01*
X104848373Y-55734873D01*
X104820163Y-55758024D01*
X104787981Y-55775226D01*
X104753062Y-55785819D01*
X104710605Y-55790000D01*
X103569395Y-55790000D01*
X103526938Y-55785819D01*
X103492019Y-55775226D01*
X103459837Y-55758024D01*
X103431627Y-55734873D01*
X103408476Y-55706663D01*
X103391274Y-55674481D01*
X103380681Y-55639562D01*
X103376500Y-55597105D01*
X103376500Y-54130895D01*
X103380681Y-54088438D01*
X103391274Y-54053519D01*
X103408476Y-54021337D01*
X103431627Y-53993127D01*
X103459837Y-53969976D01*
X103492019Y-53952774D01*
X103526938Y-53942181D01*
X103569395Y-53938000D01*
X104710605Y-53938000D01*
X104753062Y-53942181D01*
X104753062Y-53942181D01*
G37*
G36*
X101778062Y-53942181D02*
G01*
X101812981Y-53952774D01*
X101845163Y-53969976D01*
X101873373Y-53993127D01*
X101896524Y-54021337D01*
X101913726Y-54053519D01*
X101924319Y-54088438D01*
X101928500Y-54130895D01*
X101928500Y-55597105D01*
X101924319Y-55639562D01*
X101913726Y-55674481D01*
X101896524Y-55706663D01*
X101873373Y-55734873D01*
X101845163Y-55758024D01*
X101812981Y-55775226D01*
X101778062Y-55785819D01*
X101735605Y-55790000D01*
X100594395Y-55790000D01*
X100551938Y-55785819D01*
X100517019Y-55775226D01*
X100484837Y-55758024D01*
X100456627Y-55734873D01*
X100433476Y-55706663D01*
X100416274Y-55674481D01*
X100405681Y-55639562D01*
X100401500Y-55597105D01*
X100401500Y-54130895D01*
X100405681Y-54088438D01*
X100416274Y-54053519D01*
X100433476Y-54021337D01*
X100456627Y-53993127D01*
X100484837Y-53969976D01*
X100517019Y-53952774D01*
X100551938Y-53942181D01*
X100594395Y-53938000D01*
X101735605Y-53938000D01*
X101778062Y-53942181D01*
X101778062Y-53942181D01*
G37*
G36*
X122027997Y-53665051D02*
G01*
X122061652Y-53675261D01*
X122092665Y-53691838D01*
X122119851Y-53714149D01*
X122142162Y-53741335D01*
X122158739Y-53772348D01*
X122168949Y-53806003D01*
X122173000Y-53847138D01*
X122173000Y-55176862D01*
X122168949Y-55217997D01*
X122158739Y-55251652D01*
X122142162Y-55282665D01*
X122119851Y-55309851D01*
X122092665Y-55332162D01*
X122061652Y-55348739D01*
X122027997Y-55358949D01*
X121986862Y-55363000D01*
X119257138Y-55363000D01*
X119216003Y-55358949D01*
X119182348Y-55348739D01*
X119151335Y-55332162D01*
X119124149Y-55309851D01*
X119101838Y-55282665D01*
X119085261Y-55251652D01*
X119075051Y-55217997D01*
X119071000Y-55176862D01*
X119071000Y-53847138D01*
X119075051Y-53806003D01*
X119085261Y-53772348D01*
X119101838Y-53741335D01*
X119124149Y-53714149D01*
X119151335Y-53691838D01*
X119182348Y-53675261D01*
X119216003Y-53665051D01*
X119257138Y-53661000D01*
X121986862Y-53661000D01*
X122027997Y-53665051D01*
X122027997Y-53665051D01*
G37*
M02*
