G04 #@! TF.GenerationSoftware,KiCad,Pcbnew,(5.1.2)-2*
G04 #@! TF.CreationDate,2019-09-14T22:41:30+02:00*
G04 #@! TF.ProjectId,PlantWatering,506c616e-7457-4617-9465-72696e672e6b,rev?*
G04 #@! TF.SameCoordinates,Original*
G04 #@! TF.FileFunction,Soldermask,Bot*
G04 #@! TF.FilePolarity,Negative*
%FSLAX46Y46*%
G04 Gerber Fmt 4.6, Leading zero omitted, Abs format (unit mm)*
G04 Created by KiCad (PCBNEW (5.1.2)-2) date 2019-09-14 22:41:30*
%MOMM*%
%LPD*%
G04 APERTURE LIST*
%ADD10C,0.100000*%
G04 APERTURE END LIST*
D10*
G36*
X114816000Y-71992000D02*
G01*
X113614000Y-71992000D01*
X113614000Y-69390000D01*
X114816000Y-69390000D01*
X114816000Y-71992000D01*
X114816000Y-71992000D01*
G37*
G36*
X110816000Y-71992000D02*
G01*
X109614000Y-71992000D01*
X109614000Y-69390000D01*
X110816000Y-69390000D01*
X110816000Y-71992000D01*
X110816000Y-71992000D01*
G37*
G36*
X108816000Y-71992000D02*
G01*
X107614000Y-71992000D01*
X107614000Y-69390000D01*
X108816000Y-69390000D01*
X108816000Y-71992000D01*
X108816000Y-71992000D01*
G37*
G36*
X106816000Y-71992000D02*
G01*
X105614000Y-71992000D01*
X105614000Y-69390000D01*
X106816000Y-69390000D01*
X106816000Y-71992000D01*
X106816000Y-71992000D01*
G37*
G36*
X104816000Y-71992000D02*
G01*
X103614000Y-71992000D01*
X103614000Y-69390000D01*
X104816000Y-69390000D01*
X104816000Y-71992000D01*
X104816000Y-71992000D01*
G37*
G36*
X112816000Y-71992000D02*
G01*
X111614000Y-71992000D01*
X111614000Y-69390000D01*
X112816000Y-69390000D01*
X112816000Y-71992000D01*
X112816000Y-71992000D01*
G37*
G36*
X97802000Y-70497000D02*
G01*
X96000000Y-70497000D01*
X96000000Y-68695000D01*
X97802000Y-68695000D01*
X97802000Y-70497000D01*
X97802000Y-70497000D01*
G37*
G36*
X102806000Y-69592000D02*
G01*
X100204000Y-69592000D01*
X100204000Y-68390000D01*
X102806000Y-68390000D01*
X102806000Y-69592000D01*
X102806000Y-69592000D01*
G37*
G36*
X118206000Y-69592000D02*
G01*
X115604000Y-69592000D01*
X115604000Y-68390000D01*
X118206000Y-68390000D01*
X118206000Y-69592000D01*
X118206000Y-69592000D01*
G37*
G36*
X121522442Y-66161518D02*
G01*
X121588627Y-66168037D01*
X121758466Y-66219557D01*
X121914991Y-66303222D01*
X121950729Y-66332552D01*
X122052186Y-66415814D01*
X122135448Y-66517271D01*
X122164778Y-66553009D01*
X122248443Y-66709534D01*
X122299963Y-66879373D01*
X122317359Y-67056000D01*
X122299963Y-67232627D01*
X122248443Y-67402466D01*
X122164778Y-67558991D01*
X122137688Y-67592000D01*
X122052186Y-67696186D01*
X121950729Y-67779448D01*
X121914991Y-67808778D01*
X121758466Y-67892443D01*
X121588627Y-67943963D01*
X121522442Y-67950482D01*
X121456260Y-67957000D01*
X121367740Y-67957000D01*
X121301558Y-67950482D01*
X121235373Y-67943963D01*
X121065534Y-67892443D01*
X120909009Y-67808778D01*
X120873271Y-67779448D01*
X120771814Y-67696186D01*
X120686312Y-67592000D01*
X120659222Y-67558991D01*
X120575557Y-67402466D01*
X120524037Y-67232627D01*
X120506641Y-67056000D01*
X120524037Y-66879373D01*
X120575557Y-66709534D01*
X120659222Y-66553009D01*
X120688552Y-66517271D01*
X120771814Y-66415814D01*
X120873271Y-66332552D01*
X120909009Y-66303222D01*
X121065534Y-66219557D01*
X121235373Y-66168037D01*
X121301558Y-66161518D01*
X121367740Y-66155000D01*
X121456260Y-66155000D01*
X121522442Y-66161518D01*
X121522442Y-66161518D01*
G37*
G36*
X97011442Y-66161518D02*
G01*
X97077627Y-66168037D01*
X97247466Y-66219557D01*
X97403991Y-66303222D01*
X97439729Y-66332552D01*
X97541186Y-66415814D01*
X97624448Y-66517271D01*
X97653778Y-66553009D01*
X97737443Y-66709534D01*
X97788963Y-66879373D01*
X97806359Y-67056000D01*
X97788963Y-67232627D01*
X97737443Y-67402466D01*
X97653778Y-67558991D01*
X97626688Y-67592000D01*
X97541186Y-67696186D01*
X97439729Y-67779448D01*
X97403991Y-67808778D01*
X97247466Y-67892443D01*
X97077627Y-67943963D01*
X97011442Y-67950482D01*
X96945260Y-67957000D01*
X96856740Y-67957000D01*
X96790558Y-67950482D01*
X96724373Y-67943963D01*
X96554534Y-67892443D01*
X96398009Y-67808778D01*
X96362271Y-67779448D01*
X96260814Y-67696186D01*
X96175312Y-67592000D01*
X96148222Y-67558991D01*
X96064557Y-67402466D01*
X96013037Y-67232627D01*
X95995641Y-67056000D01*
X96013037Y-66879373D01*
X96064557Y-66709534D01*
X96148222Y-66553009D01*
X96177552Y-66517271D01*
X96260814Y-66415814D01*
X96362271Y-66332552D01*
X96398009Y-66303222D01*
X96554534Y-66219557D01*
X96724373Y-66168037D01*
X96790558Y-66161518D01*
X96856740Y-66155000D01*
X96945260Y-66155000D01*
X97011442Y-66161518D01*
X97011442Y-66161518D01*
G37*
G36*
X118206000Y-67592000D02*
G01*
X115604000Y-67592000D01*
X115604000Y-66390000D01*
X118206000Y-66390000D01*
X118206000Y-67592000D01*
X118206000Y-67592000D01*
G37*
G36*
X102806000Y-67592000D02*
G01*
X100204000Y-67592000D01*
X100204000Y-66390000D01*
X102806000Y-66390000D01*
X102806000Y-67592000D01*
X102806000Y-67592000D01*
G37*
G36*
X102806000Y-65592000D02*
G01*
X100204000Y-65592000D01*
X100204000Y-64390000D01*
X102806000Y-64390000D01*
X102806000Y-65592000D01*
X102806000Y-65592000D01*
G37*
G36*
X118206000Y-65592000D02*
G01*
X115604000Y-65592000D01*
X115604000Y-64390000D01*
X118206000Y-64390000D01*
X118206000Y-65592000D01*
X118206000Y-65592000D01*
G37*
G36*
X122313000Y-65417000D02*
G01*
X120511000Y-65417000D01*
X120511000Y-63615000D01*
X122313000Y-63615000D01*
X122313000Y-65417000D01*
X122313000Y-65417000D01*
G37*
G36*
X97011443Y-63621519D02*
G01*
X97077627Y-63628037D01*
X97247466Y-63679557D01*
X97403991Y-63763222D01*
X97439729Y-63792552D01*
X97541186Y-63875814D01*
X97624448Y-63977271D01*
X97653778Y-64013009D01*
X97737443Y-64169534D01*
X97788963Y-64339373D01*
X97806359Y-64516000D01*
X97788963Y-64692627D01*
X97737443Y-64862466D01*
X97653778Y-65018991D01*
X97624448Y-65054729D01*
X97541186Y-65156186D01*
X97439729Y-65239448D01*
X97403991Y-65268778D01*
X97247466Y-65352443D01*
X97077627Y-65403963D01*
X97011443Y-65410481D01*
X96945260Y-65417000D01*
X96856740Y-65417000D01*
X96790557Y-65410481D01*
X96724373Y-65403963D01*
X96554534Y-65352443D01*
X96398009Y-65268778D01*
X96362271Y-65239448D01*
X96260814Y-65156186D01*
X96177552Y-65054729D01*
X96148222Y-65018991D01*
X96064557Y-64862466D01*
X96013037Y-64692627D01*
X95995641Y-64516000D01*
X96013037Y-64339373D01*
X96064557Y-64169534D01*
X96148222Y-64013009D01*
X96177552Y-63977271D01*
X96260814Y-63875814D01*
X96362271Y-63792552D01*
X96398009Y-63763222D01*
X96554534Y-63679557D01*
X96724373Y-63628037D01*
X96790557Y-63621519D01*
X96856740Y-63615000D01*
X96945260Y-63615000D01*
X97011443Y-63621519D01*
X97011443Y-63621519D01*
G37*
G36*
X118206000Y-63592000D02*
G01*
X115604000Y-63592000D01*
X115604000Y-62390000D01*
X118206000Y-62390000D01*
X118206000Y-63592000D01*
X118206000Y-63592000D01*
G37*
G36*
X102806000Y-63592000D02*
G01*
X100204000Y-63592000D01*
X100204000Y-62390000D01*
X102806000Y-62390000D01*
X102806000Y-63592000D01*
X102806000Y-63592000D01*
G37*
G36*
X97011442Y-61081518D02*
G01*
X97077627Y-61088037D01*
X97247466Y-61139557D01*
X97403991Y-61223222D01*
X97439729Y-61252552D01*
X97541186Y-61335814D01*
X97624448Y-61437271D01*
X97653778Y-61473009D01*
X97737443Y-61629534D01*
X97788963Y-61799373D01*
X97806359Y-61976000D01*
X97788963Y-62152627D01*
X97737443Y-62322466D01*
X97653778Y-62478991D01*
X97624448Y-62514729D01*
X97541186Y-62616186D01*
X97439729Y-62699448D01*
X97403991Y-62728778D01*
X97247466Y-62812443D01*
X97077627Y-62863963D01*
X97011443Y-62870481D01*
X96945260Y-62877000D01*
X96856740Y-62877000D01*
X96790557Y-62870481D01*
X96724373Y-62863963D01*
X96554534Y-62812443D01*
X96398009Y-62728778D01*
X96362271Y-62699448D01*
X96260814Y-62616186D01*
X96177552Y-62514729D01*
X96148222Y-62478991D01*
X96064557Y-62322466D01*
X96013037Y-62152627D01*
X95995641Y-61976000D01*
X96013037Y-61799373D01*
X96064557Y-61629534D01*
X96148222Y-61473009D01*
X96177552Y-61437271D01*
X96260814Y-61335814D01*
X96362271Y-61252552D01*
X96398009Y-61223222D01*
X96554534Y-61139557D01*
X96724373Y-61088037D01*
X96790558Y-61081518D01*
X96856740Y-61075000D01*
X96945260Y-61075000D01*
X97011442Y-61081518D01*
X97011442Y-61081518D01*
G37*
G36*
X118206000Y-61592000D02*
G01*
X115604000Y-61592000D01*
X115604000Y-60390000D01*
X118206000Y-60390000D01*
X118206000Y-61592000D01*
X118206000Y-61592000D01*
G37*
G36*
X102806000Y-61592000D02*
G01*
X100204000Y-61592000D01*
X100204000Y-60390000D01*
X102806000Y-60390000D01*
X102806000Y-61592000D01*
X102806000Y-61592000D01*
G37*
G36*
X102806000Y-59592000D02*
G01*
X100204000Y-59592000D01*
X100204000Y-58390000D01*
X102806000Y-58390000D01*
X102806000Y-59592000D01*
X102806000Y-59592000D01*
G37*
G36*
X118206000Y-59592000D02*
G01*
X115604000Y-59592000D01*
X115604000Y-58390000D01*
X118206000Y-58390000D01*
X118206000Y-59592000D01*
X118206000Y-59592000D01*
G37*
G36*
X97011442Y-57017518D02*
G01*
X97077627Y-57024037D01*
X97247466Y-57075557D01*
X97403991Y-57159222D01*
X97439729Y-57188552D01*
X97541186Y-57271814D01*
X97624448Y-57373271D01*
X97653778Y-57409009D01*
X97737443Y-57565534D01*
X97788963Y-57735373D01*
X97806359Y-57912000D01*
X97788963Y-58088627D01*
X97737443Y-58258466D01*
X97653778Y-58414991D01*
X97624448Y-58450729D01*
X97541186Y-58552186D01*
X97439729Y-58635448D01*
X97403991Y-58664778D01*
X97247466Y-58748443D01*
X97077627Y-58799963D01*
X97011442Y-58806482D01*
X96945260Y-58813000D01*
X96856740Y-58813000D01*
X96790558Y-58806482D01*
X96724373Y-58799963D01*
X96554534Y-58748443D01*
X96398009Y-58664778D01*
X96362271Y-58635448D01*
X96260814Y-58552186D01*
X96177552Y-58450729D01*
X96148222Y-58414991D01*
X96064557Y-58258466D01*
X96013037Y-58088627D01*
X95995641Y-57912000D01*
X96013037Y-57735373D01*
X96064557Y-57565534D01*
X96148222Y-57409009D01*
X96177552Y-57373271D01*
X96260814Y-57271814D01*
X96362271Y-57188552D01*
X96398009Y-57159222D01*
X96554534Y-57075557D01*
X96724373Y-57024037D01*
X96790558Y-57017518D01*
X96856740Y-57011000D01*
X96945260Y-57011000D01*
X97011442Y-57017518D01*
X97011442Y-57017518D01*
G37*
G36*
X102806000Y-57592000D02*
G01*
X100204000Y-57592000D01*
X100204000Y-56390000D01*
X102806000Y-56390000D01*
X102806000Y-57592000D01*
X102806000Y-57592000D01*
G37*
G36*
X118206000Y-57592000D02*
G01*
X115604000Y-57592000D01*
X115604000Y-56390000D01*
X118206000Y-56390000D01*
X118206000Y-57592000D01*
X118206000Y-57592000D01*
G37*
G36*
X97802000Y-56273000D02*
G01*
X96000000Y-56273000D01*
X96000000Y-54471000D01*
X97802000Y-54471000D01*
X97802000Y-56273000D01*
X97802000Y-56273000D01*
G37*
G36*
X102806000Y-55592000D02*
G01*
X100204000Y-55592000D01*
X100204000Y-54390000D01*
X102806000Y-54390000D01*
X102806000Y-55592000D01*
X102806000Y-55592000D01*
G37*
G36*
X118206000Y-55592000D02*
G01*
X115604000Y-55592000D01*
X115604000Y-54390000D01*
X118206000Y-54390000D01*
X118206000Y-55592000D01*
X118206000Y-55592000D01*
G37*
M02*
