G04 #@! TF.GenerationSoftware,KiCad,Pcbnew,(5.1.2)-2*
G04 #@! TF.CreationDate,2019-09-14T22:41:30+02:00*
G04 #@! TF.ProjectId,PlantWatering,506c616e-7457-4617-9465-72696e672e6b,rev?*
G04 #@! TF.SameCoordinates,Original*
G04 #@! TF.FileFunction,Legend,Top*
G04 #@! TF.FilePolarity,Positive*
%FSLAX46Y46*%
G04 Gerber Fmt 4.6, Leading zero omitted, Abs format (unit mm)*
G04 Created by KiCad (PCBNEW (5.1.2)-2) date 2019-09-14 22:41:30*
%MOMM*%
%LPD*%
G04 APERTURE LIST*
%ADD10C,0.150000*%
%ADD11C,0.120000*%
G04 APERTURE END LIST*
D10*
X101092000Y-161036000D02*
X109220000Y-169672000D01*
X101092000Y-77216000D02*
X101092000Y-161036000D01*
X117348000Y-161544000D02*
X109220000Y-169672000D01*
X101092000Y-77216000D02*
X117348000Y-77216000D01*
X117348000Y-77216000D02*
X117348000Y-161544000D01*
D11*
X123232000Y-61997000D02*
X122382000Y-61997000D01*
X123232000Y-53827000D02*
X123232000Y-61997000D01*
X122382000Y-53827000D02*
X123232000Y-53827000D01*
X118012000Y-61997000D02*
X118012000Y-59672000D01*
X118862000Y-61997000D02*
X118012000Y-61997000D01*
X118012000Y-56152000D02*
X115622000Y-56152000D01*
X118012000Y-53827000D02*
X118012000Y-56152000D01*
X118862000Y-53827000D02*
X118012000Y-53827000D01*
X120624000Y-72319000D02*
X120624000Y-71389000D01*
X120624000Y-69159000D02*
X120624000Y-70089000D01*
X120624000Y-69159000D02*
X117464000Y-69159000D01*
X120624000Y-72319000D02*
X119164000Y-72319000D01*
X98231000Y-60646000D02*
X95571000Y-60646000D01*
X98231000Y-68326000D02*
X98231000Y-60646000D01*
X95571000Y-68326000D02*
X95571000Y-60646000D01*
X98231000Y-68326000D02*
X95571000Y-68326000D01*
X98231000Y-69596000D02*
X98231000Y-70926000D01*
X98231000Y-70926000D02*
X96901000Y-70926000D01*
X110130000Y-76076564D02*
X110130000Y-74872436D01*
X108310000Y-76076564D02*
X108310000Y-74872436D01*
X108352000Y-64675936D02*
X108352000Y-65880064D01*
X106532000Y-64675936D02*
X106532000Y-65880064D01*
X109604564Y-61362000D02*
X108400436Y-61362000D01*
X109604564Y-59542000D02*
X108400436Y-59542000D01*
X103508564Y-68728000D02*
X102304436Y-68728000D01*
X103508564Y-66908000D02*
X102304436Y-66908000D01*
X102304436Y-64368000D02*
X103508564Y-64368000D01*
X102304436Y-66188000D02*
X103508564Y-66188000D01*
X120082000Y-68386000D02*
X122742000Y-68386000D01*
X120082000Y-65786000D02*
X120082000Y-68386000D01*
X122742000Y-65786000D02*
X122742000Y-68386000D01*
X120082000Y-65786000D02*
X122742000Y-65786000D01*
X120082000Y-64516000D02*
X120082000Y-63186000D01*
X120082000Y-63186000D02*
X121412000Y-63186000D01*
X108327436Y-55774000D02*
X109531564Y-55774000D01*
X108327436Y-53954000D02*
X109531564Y-53954000D01*
X102050436Y-55774000D02*
X103254564Y-55774000D01*
X102050436Y-53954000D02*
X103254564Y-53954000D01*
X119110000Y-63410000D02*
X117110000Y-63410000D01*
X117110000Y-63410000D02*
X117110000Y-67310000D01*
X119110000Y-63410000D02*
X119110000Y-67310000D01*
X95571000Y-54042000D02*
X96901000Y-54042000D01*
X95571000Y-55372000D02*
X95571000Y-54042000D01*
X95571000Y-56642000D02*
X98231000Y-56642000D01*
X98231000Y-56642000D02*
X98231000Y-59242000D01*
X95571000Y-56642000D02*
X95571000Y-59242000D01*
X95571000Y-59242000D02*
X98231000Y-59242000D01*
X109568064Y-56748000D02*
X108363936Y-56748000D01*
X109568064Y-58568000D02*
X108363936Y-58568000D01*
X114914000Y-70488564D02*
X114914000Y-69284436D01*
X116734000Y-70488564D02*
X116734000Y-69284436D01*
X105460000Y-60071000D02*
X105460000Y-58191000D01*
X105460000Y-60071000D02*
X105460000Y-61951000D01*
X100280000Y-60071000D02*
X100280000Y-58191000D01*
X100280000Y-60071000D02*
X100280000Y-63596000D01*
X105106000Y-72712000D02*
X101606000Y-72712000D01*
X101606000Y-69612000D02*
X105106000Y-69612000D01*
X102406000Y-73362000D02*
X102406000Y-72712000D01*
X104306000Y-73362000D02*
X102406000Y-73362000D01*
X104306000Y-72712000D02*
X104306000Y-73362000D01*
D10*
X121626380Y-58245333D02*
X122340666Y-58245333D01*
X122483523Y-58292952D01*
X122578761Y-58388190D01*
X122626380Y-58531047D01*
X122626380Y-58626285D01*
X121626380Y-57864380D02*
X121626380Y-57245333D01*
X122007333Y-57578666D01*
X122007333Y-57435809D01*
X122054952Y-57340571D01*
X122102571Y-57292952D01*
X122197809Y-57245333D01*
X122435904Y-57245333D01*
X122531142Y-57292952D01*
X122578761Y-57340571D01*
X122626380Y-57435809D01*
X122626380Y-57721523D01*
X122578761Y-57816761D01*
X122531142Y-57864380D01*
X119792761Y-73699619D02*
X119697523Y-73652000D01*
X119602285Y-73556761D01*
X119459428Y-73413904D01*
X119364190Y-73366285D01*
X119268952Y-73366285D01*
X119316571Y-73604380D02*
X119221333Y-73556761D01*
X119126095Y-73461523D01*
X119078476Y-73271047D01*
X119078476Y-72937714D01*
X119126095Y-72747238D01*
X119221333Y-72652000D01*
X119316571Y-72604380D01*
X119507047Y-72604380D01*
X119602285Y-72652000D01*
X119697523Y-72747238D01*
X119745142Y-72937714D01*
X119745142Y-73271047D01*
X119697523Y-73461523D01*
X119602285Y-73556761D01*
X119507047Y-73604380D01*
X119316571Y-73604380D01*
X120697523Y-73604380D02*
X120126095Y-73604380D01*
X120411809Y-73604380D02*
X120411809Y-72604380D01*
X120316571Y-72747238D01*
X120221333Y-72842476D01*
X120126095Y-72890095D01*
X94448380Y-66119333D02*
X95162666Y-66119333D01*
X95305523Y-66166952D01*
X95400761Y-66262190D01*
X95448380Y-66405047D01*
X95448380Y-66500285D01*
X94781714Y-65214571D02*
X95448380Y-65214571D01*
X94400761Y-65452666D02*
X95115047Y-65690761D01*
X95115047Y-65071714D01*
X111450380Y-75858666D02*
X110974190Y-76192000D01*
X111450380Y-76430095D02*
X110450380Y-76430095D01*
X110450380Y-76049142D01*
X110498000Y-75953904D01*
X110545619Y-75906285D01*
X110640857Y-75858666D01*
X110783714Y-75858666D01*
X110878952Y-75906285D01*
X110926571Y-75953904D01*
X110974190Y-76049142D01*
X110974190Y-76430095D01*
X110450380Y-74953904D02*
X110450380Y-75430095D01*
X110926571Y-75477714D01*
X110878952Y-75430095D01*
X110831333Y-75334857D01*
X110831333Y-75096761D01*
X110878952Y-75001523D01*
X110926571Y-74953904D01*
X111021809Y-74906285D01*
X111259904Y-74906285D01*
X111355142Y-74953904D01*
X111402761Y-75001523D01*
X111450380Y-75096761D01*
X111450380Y-75334857D01*
X111402761Y-75430095D01*
X111355142Y-75477714D01*
X109672380Y-65444666D02*
X109196190Y-65778000D01*
X109672380Y-66016095D02*
X108672380Y-66016095D01*
X108672380Y-65635142D01*
X108720000Y-65539904D01*
X108767619Y-65492285D01*
X108862857Y-65444666D01*
X109005714Y-65444666D01*
X109100952Y-65492285D01*
X109148571Y-65539904D01*
X109196190Y-65635142D01*
X109196190Y-66016095D01*
X108767619Y-65063714D02*
X108720000Y-65016095D01*
X108672380Y-64920857D01*
X108672380Y-64682761D01*
X108720000Y-64587523D01*
X108767619Y-64539904D01*
X108862857Y-64492285D01*
X108958095Y-64492285D01*
X109100952Y-64539904D01*
X109672380Y-65111333D01*
X109672380Y-64492285D01*
X112466380Y-60618666D02*
X111990190Y-60952000D01*
X112466380Y-61190095D02*
X111466380Y-61190095D01*
X111466380Y-60809142D01*
X111514000Y-60713904D01*
X111561619Y-60666285D01*
X111656857Y-60618666D01*
X111799714Y-60618666D01*
X111894952Y-60666285D01*
X111942571Y-60713904D01*
X111990190Y-60809142D01*
X111990190Y-61190095D01*
X112466380Y-59666285D02*
X112466380Y-60237714D01*
X112466380Y-59952000D02*
X111466380Y-59952000D01*
X111609238Y-60047238D01*
X111704476Y-60142476D01*
X111752095Y-60237714D01*
X100179142Y-67984666D02*
X100226761Y-68032285D01*
X100274380Y-68175142D01*
X100274380Y-68270380D01*
X100226761Y-68413238D01*
X100131523Y-68508476D01*
X100036285Y-68556095D01*
X99845809Y-68603714D01*
X99702952Y-68603714D01*
X99512476Y-68556095D01*
X99417238Y-68508476D01*
X99322000Y-68413238D01*
X99274380Y-68270380D01*
X99274380Y-68175142D01*
X99322000Y-68032285D01*
X99369619Y-67984666D01*
X99369619Y-67603714D02*
X99322000Y-67556095D01*
X99274380Y-67460857D01*
X99274380Y-67222761D01*
X99322000Y-67127523D01*
X99369619Y-67079904D01*
X99464857Y-67032285D01*
X99560095Y-67032285D01*
X99702952Y-67079904D01*
X100274380Y-67651333D01*
X100274380Y-67032285D01*
X100179142Y-65444666D02*
X100226761Y-65492285D01*
X100274380Y-65635142D01*
X100274380Y-65730380D01*
X100226761Y-65873238D01*
X100131523Y-65968476D01*
X100036285Y-66016095D01*
X99845809Y-66063714D01*
X99702952Y-66063714D01*
X99512476Y-66016095D01*
X99417238Y-65968476D01*
X99322000Y-65873238D01*
X99274380Y-65730380D01*
X99274380Y-65635142D01*
X99322000Y-65492285D01*
X99369619Y-65444666D01*
X99274380Y-65111333D02*
X99274380Y-64492285D01*
X99655333Y-64825619D01*
X99655333Y-64682761D01*
X99702952Y-64587523D01*
X99750571Y-64539904D01*
X99845809Y-64492285D01*
X100083904Y-64492285D01*
X100179142Y-64539904D01*
X100226761Y-64587523D01*
X100274380Y-64682761D01*
X100274380Y-64968476D01*
X100226761Y-65063714D01*
X100179142Y-65111333D01*
X123150380Y-65865333D02*
X123864666Y-65865333D01*
X124007523Y-65912952D01*
X124102761Y-66008190D01*
X124150380Y-66151047D01*
X124150380Y-66246285D01*
X124150380Y-64865333D02*
X124150380Y-65436761D01*
X124150380Y-65151047D02*
X123150380Y-65151047D01*
X123293238Y-65246285D01*
X123388476Y-65341523D01*
X123436095Y-65436761D01*
X112466380Y-55030666D02*
X111990190Y-55364000D01*
X112466380Y-55602095D02*
X111466380Y-55602095D01*
X111466380Y-55221142D01*
X111514000Y-55125904D01*
X111561619Y-55078285D01*
X111656857Y-55030666D01*
X111799714Y-55030666D01*
X111894952Y-55078285D01*
X111942571Y-55125904D01*
X111990190Y-55221142D01*
X111990190Y-55602095D01*
X111466380Y-54697333D02*
X111466380Y-54078285D01*
X111847333Y-54411619D01*
X111847333Y-54268761D01*
X111894952Y-54173523D01*
X111942571Y-54125904D01*
X112037809Y-54078285D01*
X112275904Y-54078285D01*
X112371142Y-54125904D01*
X112418761Y-54173523D01*
X112466380Y-54268761D01*
X112466380Y-54554476D01*
X112418761Y-54649714D01*
X112371142Y-54697333D01*
X99925142Y-55030666D02*
X99972761Y-55078285D01*
X100020380Y-55221142D01*
X100020380Y-55316380D01*
X99972761Y-55459238D01*
X99877523Y-55554476D01*
X99782285Y-55602095D01*
X99591809Y-55649714D01*
X99448952Y-55649714D01*
X99258476Y-55602095D01*
X99163238Y-55554476D01*
X99068000Y-55459238D01*
X99020380Y-55316380D01*
X99020380Y-55221142D01*
X99068000Y-55078285D01*
X99115619Y-55030666D01*
X100020380Y-54078285D02*
X100020380Y-54649714D01*
X100020380Y-54364000D02*
X99020380Y-54364000D01*
X99163238Y-54459238D01*
X99258476Y-54554476D01*
X99306095Y-54649714D01*
X116784380Y-66524095D02*
X115784380Y-66524095D01*
X115784380Y-66286000D01*
X115832000Y-66143142D01*
X115927238Y-66047904D01*
X116022476Y-66000285D01*
X116212952Y-65952666D01*
X116355809Y-65952666D01*
X116546285Y-66000285D01*
X116641523Y-66047904D01*
X116736761Y-66143142D01*
X116784380Y-66286000D01*
X116784380Y-66524095D01*
X116784380Y-65000285D02*
X116784380Y-65571714D01*
X116784380Y-65286000D02*
X115784380Y-65286000D01*
X115927238Y-65381238D01*
X116022476Y-65476476D01*
X116070095Y-65571714D01*
X94321380Y-56975333D02*
X95035666Y-56975333D01*
X95178523Y-57022952D01*
X95273761Y-57118190D01*
X95321380Y-57261047D01*
X95321380Y-57356285D01*
X94416619Y-56546761D02*
X94369000Y-56499142D01*
X94321380Y-56403904D01*
X94321380Y-56165809D01*
X94369000Y-56070571D01*
X94416619Y-56022952D01*
X94511857Y-55975333D01*
X94607095Y-55975333D01*
X94749952Y-56022952D01*
X95321380Y-56594380D01*
X95321380Y-55975333D01*
X112466380Y-57824666D02*
X111990190Y-58158000D01*
X112466380Y-58396095D02*
X111466380Y-58396095D01*
X111466380Y-58015142D01*
X111514000Y-57919904D01*
X111561619Y-57872285D01*
X111656857Y-57824666D01*
X111799714Y-57824666D01*
X111894952Y-57872285D01*
X111942571Y-57919904D01*
X111990190Y-58015142D01*
X111990190Y-58396095D01*
X111799714Y-56967523D02*
X112466380Y-56967523D01*
X111418761Y-57205619D02*
X112133047Y-57443714D01*
X112133047Y-56824666D01*
X114456380Y-70053166D02*
X113980190Y-70386500D01*
X114456380Y-70624595D02*
X113456380Y-70624595D01*
X113456380Y-70243642D01*
X113504000Y-70148404D01*
X113551619Y-70100785D01*
X113646857Y-70053166D01*
X113789714Y-70053166D01*
X113884952Y-70100785D01*
X113932571Y-70148404D01*
X113980190Y-70243642D01*
X113980190Y-70624595D01*
X113456380Y-69196023D02*
X113456380Y-69386500D01*
X113504000Y-69481738D01*
X113551619Y-69529357D01*
X113694476Y-69624595D01*
X113884952Y-69672214D01*
X114265904Y-69672214D01*
X114361142Y-69624595D01*
X114408761Y-69576976D01*
X114456380Y-69481738D01*
X114456380Y-69291261D01*
X114408761Y-69196023D01*
X114361142Y-69148404D01*
X114265904Y-69100785D01*
X114027809Y-69100785D01*
X113932571Y-69148404D01*
X113884952Y-69196023D01*
X113837333Y-69291261D01*
X113837333Y-69481738D01*
X113884952Y-69576976D01*
X113932571Y-69624595D01*
X114027809Y-69672214D01*
X102108095Y-59523380D02*
X102108095Y-60332904D01*
X102155714Y-60428142D01*
X102203333Y-60475761D01*
X102298571Y-60523380D01*
X102489047Y-60523380D01*
X102584285Y-60475761D01*
X102631904Y-60428142D01*
X102679523Y-60332904D01*
X102679523Y-59523380D01*
X103679523Y-60523380D02*
X103108095Y-60523380D01*
X103393809Y-60523380D02*
X103393809Y-59523380D01*
X103298571Y-59666238D01*
X103203333Y-59761476D01*
X103108095Y-59809095D01*
X103760761Y-72453333D02*
X103808380Y-72310476D01*
X103808380Y-72072380D01*
X103760761Y-71977142D01*
X103713142Y-71929523D01*
X103617904Y-71881904D01*
X103522666Y-71881904D01*
X103427428Y-71929523D01*
X103379809Y-71977142D01*
X103332190Y-72072380D01*
X103284571Y-72262857D01*
X103236952Y-72358095D01*
X103189333Y-72405714D01*
X103094095Y-72453333D01*
X102998857Y-72453333D01*
X102903619Y-72405714D01*
X102856000Y-72358095D01*
X102808380Y-72262857D01*
X102808380Y-72024761D01*
X102856000Y-71881904D01*
X102808380Y-71548571D02*
X103808380Y-71310476D01*
X103094095Y-71120000D01*
X103808380Y-70929523D01*
X102808380Y-70691428D01*
X103808380Y-69786666D02*
X103808380Y-70358095D01*
X103808380Y-70072380D02*
X102808380Y-70072380D01*
X102951238Y-70167619D01*
X103046476Y-70262857D01*
X103094095Y-70358095D01*
M02*
